<?xml version="1.0" standalone="no"?>
<!DOCTYPE svg PUBLIC "-//W3C//DTD SVG 20010904//EN"
 "http://www.w3.org/TR/2001/REC-SVG-20010904/DTD/svg10.dtd">
<svg version="1.0" xmlns="http://www.w3.org/2000/svg"
 width="180.000000pt" height="180.000000pt" viewBox="0 0 180.000000 180.000000"
 preserveAspectRatio="xMidYMid meet">

<g transform="translate(0.000000,180.000000) scale(0.100000,-0.100000)"
fill="#000000" stroke="none">
<path d="M105 1781 c-48 -22 -69 -44 -90 -94 -13 -32 -15 -134 -15 -789 0
-709 2 -755 19 -793 22 -48 44 -69 94 -90 32 -13 134 -15 789 -15 709 0 755 2
793 19 48 22 69 44 90 94 13 32 15 134 15 787 0 653 -2 755 -15 787 -21 50
-42 72 -90 94 -38 18 -84 19 -795 19 -711 0 -757 -1 -795 -19z m902 -317 c70
-19 132 -69 167 -133 24 -46 29 -65 29 -130 0 -90 -18 -139 -71 -195 -20 -21
-59 -49 -86 -62 l-49 -23 29 -7 c91 -22 168 -86 199 -167 25 -67 18 -196 -15
-261 -77 -151 -307 -211 -582 -149 l-68 15 0 52 0 53 52 -13 c140 -37 292 -38
381 -5 39 15 97 71 112 109 19 44 19 140 0 185 -20 47 -83 100 -139 115 -26 6
-96 12 -156 12 l-110 0 0 48 0 48 111 11 c127 13 184 36 232 96 26 31 32 49
35 102 2 36 1 76 -2 90 -11 43 -63 92 -117 110 -84 28 -272 18 -362 -20 -16
-7 -18 -2 -15 46 l3 53 45 14 c104 31 274 34 377 6z"/>
</g>
</svg>
