<?xml version="1.0" encoding="UTF-8" standalone="yes"?>
<svg version="1.2" baseProfile="tiny-ps" viewBox="0 0 300 300" xmlns="http://www.w3.org/2000/svg">
  <title>VAND3RLINDEN</title>
  <g>
    <g fill="#fff" transform="matrix(.1 0 0 -.1 0 300)">
      <path d="M203 2982c-67-24-118-63-154-120l-28-45-11-51-11-51 3-1245L5 225l28-57 28-57 36-32c21-17 57-41 82-53l46-21h2550l57 28 57 28 32 36c17 21 41 57 53 82l21 46v2550l-21 46c-12 25-36 61-53 82l-32 36-57 28-57 28-1260 2-1260 3-52-18z"/>
    </g>
    <g fill="#d6d6d6" transform="matrix(.1 0 0 -.1 0 300)">
      <path d="M203 2982c-67-24-118-63-154-120l-28-45-11-51-11-51 3-1245L5 225l28-57 28-57 36-32c21-17 57-41 82-53l46-21h2550l57 28 57 28 32 36c17 21 41 57 53 82l21 46v2550l-21 46c-12 25-36 61-53 82l-32 36-57 28-57 28-1260 2-1260 3-52-18zm1387-526c41-8 101-24 132-35l57-22 56-42 56-41 39-59 40-59 11-41c6-22 15-67 20-100l10-60-11-71-10-71-35-71-35-72-58-53c-54-50-103-81-177-110l-30-11 65-23c36-12 88-33 115-46l50-23 55-56 56-55 23-50 24-50 15-79 16-79-11-86-11-86-22-56-22-56-43-55-42-54-56-38c-71-46-170-84-267-102l-75-13-132-1h-132l-78 11c-83 11-181 33-225 51l-28 10v150l28-5c15-3 81-17 147-31l120-27 145-1 145-1 65 17c36 10 91 32 123 49l59 31 34 40 34 39 21 56 22 56v191l-28 62-28 62-42 39c-48 44-77 60-150 86l-50 18-200 6-200 6-3 76-3 76 138 6 139 6 80 24 80 23 47 27 47 28 40 50 40 51 16 55 16 56-4 81-5 81-25 50c-43 83-109 132-218 160l-65 17-155-5-155-6-80-21c-44-12-90-24-102-27l-23-5v151l18 9c61 32 243 59 402 60l115 1 75-13z"/>
    </g>
    <g fill="#a2a2a2" transform="matrix(.1 0 0 -.1 0 300)">
      <path d="M203 2982c-67-24-118-63-154-120l-28-45-11-51-11-51 3-1245L5 225l28-57 28-57 36-32c21-17 57-41 82-53l46-21h2550l57 28 57 28 32 36c17 21 41 57 53 82l21 46v2550l-21 46c-12 25-36 61-53 82l-32 36-57 28-57 28-1260 2-1260 3-52-18zm1450-536c170-48 279-142 328-284l20-57 5-75 6-75-16-68c-9-37-28-91-42-119l-26-52-54-53-55-53-79-38-80-38 51-13c28-7 81-29 119-47l67-34 50-53c58-62 87-113 108-194l15-57V985l-15-64-16-64-31-59-31-59-56-51-56-51-70-33c-90-43-162-61-297-76l-109-11-122 11-122 12-107 27-108 26v169l15-6c36-14 137-36 225-51l95-15h230l70 15c38 8 93 26 121 40l51 25 45 48 45 48 22 57 21 58v167l-16 50-16 50-37 47-36 48-52 29c-29 17-76 37-105 45l-53 15-192 5-193 5v168h241l76 16 77 16 55 28 56 28 39 39 39 38 26 55 26 55v190l-21 46-21 45-39 39-39 38-50 23-50 23-70 12-69 12-121-6-120-7-85-19c-47-11-97-24-112-30l-28-11v169l38 10c167 45 203 49 407 46l170-2 58-17z"/>
    </g>
    <g fill="#656565" transform="matrix(.1 0 0 -.1 0 300)">
      <path d="M203 2982c-67-24-118-63-154-120l-28-45-11-51-11-51 3-1245L5 225l28-57 28-57 36-32c21-17 57-41 82-53l46-21h2550l57 28 57 28 32 36c17 21 41 57 53 82l21 46v2550l-21 46c-12 25-36 61-53 82l-32 36-57 28-57 28-1260 2-1260 3-52-18zm1421-527 69-15 64-29 63-30 55-52 55-52 30-61 30-61 10-54c14-76 12-151-6-231l-15-69-38-58-37-58-46-40c-43-38-99-71-163-95l-29-11 79-27 80-27 58-39 59-39 38-51c21-28 48-76 61-106l22-55 5-104 5-103-13-57c-6-31-25-83-41-116l-28-60-43-44c-24-24-70-62-102-83l-59-38-76-24-76-24-99-12-99-13-116 6c-128 7-198 18-313 49l-78 20v170l23-6c151-43 304-66 442-66h90l68 15c89 19 164 54 215 100l41 37 28 56 28 57v220l-23 50-23 50-42 43c-49 51-90 74-172 97l-60 17-187 5-188 6v167h231l77 15 77 16 62 30 62 30 45 50 45 50 18 52 18 52-1 80-1 80-22 50-22 50-36 37-35 36-59 27-59 26-91 11-91 11-112-11c-96-10-176-26-283-58l-23-6v163l33 13c45 19 168 45 262 56l80 9 105-5 105-4 69-15z"/>
    </g>
    <g fill="#343434" transform="matrix(.1 0 0 -.1 0 300)">
      <path d="M203 2982c-67-24-118-63-154-120l-28-45-11-51-11-51 3-1245L5 225l28-57 28-57 36-32c21-17 57-41 82-53l46-21h2550l57 28 57 28 32 36c17 21 41 57 53 82l21 46v2550l-21 46c-12 25-36 61-53 82l-32 36-57 28-57 28-1260 2-1260 3-52-18zm1354-513c43-6 108-21 144-33l66-23 57-38 58-38 40-53c21-29 49-77 60-106l21-53 5-101 4-100-17-59c-25-87-51-132-112-196l-54-57-75-38-74-38 52-16c80-25 148-63 204-114l51-45 32-61 33-61 14-82 15-82-6-55c-9-90-26-151-57-214l-30-59-51-52-52-51-82-41-82-41-78-19-78-18h-180l-180 1-86 17c-47 9-108 24-137 32l-52 16v84c0 47 3 85 6 85s40-9 82-19c43-11 111-25 152-32l75-13 135-1h135l55 14c72 18 146 53 192 91l37 31 33 67 33 67v190l-18 52-18 52-44 49-44 49-60 27c-85 38-134 46-339 53l-183 6 3 81 3 81 145 7 145 6 58 16c72 20 146 57 190 95l33 30 29 53 29 53 4 91 4 92-17 53-18 53-47 46-46 47-59 22-60 22-83 10-83 9-108-10-108-10-79-21c-44-12-89-23-101-26l-23-5v171l52 16c162 48 378 66 535 44z"/>
    </g>
    <g fill="#010101" transform="matrix(.1 0 0 -.1 0 300)">
      <path d="M203 2982c-67-24-118-63-154-120l-28-45-11-51-11-51 3-1245L5 225l28-57 28-57 36-32c21-17 57-41 82-53l46-21h2550l57 28 57 28 32 36c17 21 41 57 53 82l21 46v2550l-21 46c-12 25-36 61-53 82l-32 36-57 28-57 28-1260 2-1260 3-52-18zm1398-518 84-16 70-32 70-33 53-47 52-48 37-77 38-76 3-120 4-120-21-60-21-60-38-54-37-55-59-43c-32-24-79-52-105-64l-46-20 67-23c153-54 252-148 300-285l19-56 5-80 6-80-16-73c-8-41-27-98-40-128l-26-55-62-63-63-63-78-37-78-38-97-20-97-20-180 5-180 6-69 15c-38 9-93 23-123 32l-53 15v83c0 45 2 85 5 88 3 2 44-5 93-18 48-12 123-28 167-34l80-13h240l68 17c84 20 137 47 191 96l42 39 21 43 22 43 12 68 12 67-12 67-12 68-27 49-27 49-48 39-48 38-67 21-67 22-200 6-200 6-3 88-3 87h83c109 0 233 16 311 40l63 19 47 34c58 41 99 96 121 161l16 50v135l-21 56-21 56-34 35c-19 19-56 45-83 58l-48 25-69 12-68 12-136-6-135-6-90-24c-49-14-98-28-108-32l-18-7 3 92 3 93 65 18c36 10 101 25 145 33l80 14 126 1 127 1 83-16z"/>
    </g>
  </g>
</svg>