<?xml version="1.0" standalone="no"?>
<!DOCTYPE svg PUBLIC "-//W3C//DTD SVG 20010904//EN" "http://www.w3.org/TR/2001/REC-SVG-20010904/DTD/svg10.dtd">
<svg version="1.2" xmlns="http://www.w3.org/2000/svg" width="192.000000pt" height="192.000000pt" viewBox="0 0 192.000000 192.000000" preserveAspectRatio="xMidYMid meet" zoomAndPan="disable" baseProfile="tiny">

<g transform="translate(0.000000,192.000000) scale(0.100000,-0.100000)" fill="#000000" stroke="none">
<path d="M115 1901 c-48 -22 -79 -54 -100 -103 -13 -33 -15 -138 -15 -840 0 -759 1 -805 19 -843 22 -48 54 -79 103 -100 33 -13 138 -15 840 -15 759 0 805 1 843 19 48 22 79 54 100 103 13 33 15 138 15 838 0 700 -2 805 -15 838 -21 49 -52 81 -100 103 -38 18 -83 19 -845 19 -762 0 -807 -1 -845 -19z m995 -352 c77 -36 115 -71 146 -136 23 -46 28 -69 27 -132 0 -128 -57 -222 -169 -276 -27 -14 -42 -25 -34 -25 8 0 42 -13 75 -29 137 -64 200 -206 161 -359 -39 -152 -144 -229 -344 -254 -94 -11 -236 1 -329 28 l-53 15 0 56 c0 48 2 54 18 48 38 -15 151 -36 229 -42 197 -15 326 53 353 184 18 84 -7 180 -57 225 -49 45 -113 62 -250 66 l-133 4 0 54 0 54 78 0 c232 0 359 115 321 290 -14 67 -66 121 -135 141 -87 25 -288 12 -376 -26 -16 -6 -18 -1 -18 49 l0 55 53 15 c28 8 61 17 72 20 11 2 85 4 165 3 132 -2 150 -5 200 -28z"/>
</g>
</svg>
